<svg width="24" height="24" viewBox="0 0 24 24" fill="none" xmlns="http://www.w3.org/2000/svg">
<g id="Icon/Nav/Notification/Active">
<g id="Icon">
<path id="Stroke 1" fill-rule="evenodd" clip-rule="evenodd" d="M11.9964 2.51416C7.5621 2.51416 5.63543 6.5294 5.63543 9.18368C5.63543 11.1675 5.92305 10.5837 4.82496 13.0037C3.484 16.4523 8.87638 17.8618 11.9964 17.8618C15.1154 17.8618 20.5078 16.4523 19.1678 13.0037C18.0697 10.5837 18.3573 11.1675 18.3573 9.18368C18.3573 6.5294 16.4297 2.51416 11.9964 2.51416Z" fill="#F9D8D8"/>
<path id="Union" fill-rule="evenodd" clip-rule="evenodd" d="M11.9963 1.76416C9.52164 1.76416 7.72182 2.89651 6.56037 4.3939C5.41723 5.86768 4.88537 7.69875 4.88537 9.18368C4.88537 9.60993 4.89833 9.92637 4.90815 10.1665L4.90816 10.1666C4.91018 10.2159 4.91207 10.262 4.91368 10.3052C4.92335 10.5635 4.92138 10.6876 4.90152 10.8105C4.85635 11.0901 4.71333 11.4345 4.14192 12.6938C4.13623 12.7063 4.13088 12.719 4.12588 12.7319C3.71277 13.7943 3.80487 14.7717 4.29576 15.6C4.76418 16.3904 5.55169 16.9724 6.40295 17.3971C8.10527 18.2463 10.3559 18.6118 11.9963 18.6118C13.6363 18.6118 15.8867 18.2463 17.589 17.3971C18.4402 16.9724 19.2278 16.3904 19.6963 15.6001C20.1873 14.7719 20.2797 13.7945 19.8668 12.732C19.8618 12.7191 19.8565 12.7064 19.8507 12.6938C19.2793 11.4345 19.1363 11.0901 19.0911 10.8105C19.0713 10.6876 19.0693 10.5635 19.079 10.3052C19.0806 10.262 19.0825 10.2159 19.0845 10.1665C19.0943 9.92636 19.1073 9.60992 19.1073 9.18368C19.1073 7.69867 18.5751 5.86761 17.4319 4.39386C16.2704 2.89654 14.4706 1.76416 11.9963 1.76416ZM6.38537 9.18368C6.38537 8.01433 6.81685 6.51064 7.74562 5.31323C8.65607 4.13943 10.0367 3.26416 11.9963 3.26416C13.9554 3.26416 15.3361 4.1394 16.2467 5.31327C17.1756 6.51071 17.6073 8.01441 17.6073 9.18368C17.6073 9.57679 17.5957 9.86077 17.5859 10.0998C17.5838 10.1515 17.5818 10.201 17.58 10.2491C17.5701 10.515 17.5648 10.7681 17.6103 11.0497C17.6948 11.5728 17.9518 12.139 18.4657 13.2716L18.4657 13.2716L18.4757 13.2936C18.7244 13.9462 18.6444 14.4329 18.406 14.8352C18.1429 15.279 17.6386 15.696 16.9194 16.0548C15.4807 16.7725 13.4754 17.1118 11.9963 17.1118C10.5168 17.1118 8.51119 16.7725 7.07255 16.0548C6.35334 15.696 5.84919 15.2791 5.58618 14.8353C5.34785 14.4331 5.26801 13.9464 5.51689 13.2937L5.52692 13.2716C6.04089 12.139 6.29781 11.5728 6.38232 11.0497C6.42782 10.7681 6.42258 10.515 6.41263 10.2491C6.41084 10.2012 6.40882 10.1518 6.40672 10.1003L6.4067 10.0998C6.39696 9.86076 6.38537 9.57678 6.38537 9.18368ZM10.2455 20.0125C9.96958 19.7036 9.49546 19.6769 9.18654 19.9528C8.87762 20.2287 8.85088 20.7029 9.12681 21.0118C10.7346 22.8117 13.2755 22.7879 14.865 21.0124C15.1412 20.7038 15.115 20.2297 14.8064 19.9534C14.4978 19.6771 14.0237 19.7033 13.7474 20.0119C12.7483 21.1279 11.2511 21.1383 10.2455 20.0125Z" fill="#E23E3E"/>
</g>
</g>
</svg>
